<svg width="128" height="30" viewBox="0 0 128 30" fill="none" xmlns="http://www.w3.org/2000/svg">
  <path d="M121.023 7.34521H113.253L119.617 18.3631L113.253 29.3809H121.023L127.382 18.3631L121.023 7.34521Z" fill="#FF6800"/>
  <path d="M127.382 18.3631L121.023 7.34521H113.253L119.617 18.3631H127.382Z" fill="#FF8E40"/>
  <path d="M115.094 18.5783C115.094 11.9728 110.184 6.44817 103.457 6.44817C98.0692 6.44817 93.8667 10.2362 92.2927 15.1942V2.09874C92.3007 1.82098 92.2519 1.54452 92.1492 1.28629C92.0466 1.02807 91.8923 0.793528 91.6958 0.59704C91.4993 0.400552 91.2648 0.246258 91.0065 0.143613C90.7483 0.0409683 90.4719 -0.00786434 90.1941 0.000107723H85.9968V29.381H90.1941C91.4113 29.381 92.2927 28.1533 92.2927 26.9361V21.2383C93.8667 26.1963 98.2056 30.0001 103.578 30.0001C108.52 30.0001 112.445 26.7577 114.344 22.5604H107.623C106.574 23.6098 105.409 24.6171 103.625 24.6171C101.055 24.6171 98.9034 23.0851 98.4837 20.4618H114.937C115.052 19.8408 115.105 19.2098 115.094 18.5783ZM98.5624 15.7399C98.8718 14.6567 99.5257 13.7038 100.425 13.0254C101.324 12.347 102.42 11.98 103.547 11.98C104.673 11.98 105.769 12.347 106.668 13.0254C107.568 13.7038 108.222 14.6567 108.531 15.7399H98.5624Z" fill="#33424F"/>
  <path d="M77.0777 2.09874V9.06097C74.979 7.2404 73.085 6.43767 70.5509 6.43767C64.9948 6.43767 61.0493 10.1942 59.9475 15.1837C59.9213 12.6811 59.4229 10.0263 57.4029 8.36317C55.776 7.14787 53.804 6.4826 51.7733 6.46391C49.1238 6.46391 47.1773 7.36107 45.7922 9.45971H45.5981V9.44397C45.6071 9.16716 45.5587 8.89149 45.4561 8.63426C45.3534 8.37702 45.1987 8.14379 45.0016 7.94918C44.8046 7.75458 44.5694 7.60282 44.3109 7.50342C44.0524 7.40402 43.7762 7.35913 43.4995 7.37157H39.8269V15.5877C38.2529 10.3411 34.1605 6.44817 28.4313 6.44817C21.9885 6.44817 16.8888 11.8679 16.8888 18.2373C16.8888 18.4786 16.8888 18.7147 16.8888 18.9508C14.1343 15.2205 6.88877 15.9602 6.88877 13.1795C6.88877 12.1879 7.86988 11.8522 8.74082 11.8522C9.88982 11.8522 10.7503 12.0725 10.787 13.6465H17.2036C16.7891 8.91931 13.1689 6.44817 8.77754 6.44817C4.54879 6.44817 0.278069 9.1659 0.278069 13.7567C0.278069 16.8417 2.90136 18.5101 5.52466 19.4545C6.47429 19.8112 7.42392 20.1103 8.37356 20.4303C9.55929 20.9025 11.3379 21.3695 11.3379 22.9487C11.3379 24.0977 10.0315 24.6171 9.04512 24.6171C7.73872 24.6171 6.75236 24.1344 6.55299 22.5604H0C0.524659 27.807 4.34942 30.0001 8.9192 30.0001C13.1952 30.0001 17.4711 27.5657 17.8384 23.0326C18.7569 25.0825 20.2418 26.8273 22.1184 28.0616C23.9951 29.296 26.1853 29.9685 28.4313 30.0001C33.3736 30.0001 37.2508 26.7577 39.1448 22.5604H32.4239C31.3746 23.6098 30.2099 24.6171 28.4313 24.6171C25.8552 24.6171 23.7093 23.0851 23.2844 20.4618H39.8269V29.381H46.1228V17.2089C46.1228 14.5856 46.9098 12.6182 49.958 12.6182C52.9224 12.6182 53.468 14.7168 53.468 17.167V26.9361C53.468 28.1533 54.3442 29.381 55.5666 29.381H59.7639V21.0966C60.8132 26.1386 64.8636 30.0158 70.5194 30.0158C73.043 30.0158 75.6768 29.4125 77.0777 26.9046V27.083C77.1267 27.6895 77.3951 28.2574 77.8325 28.6803C78.27 29.1033 78.8465 29.3524 79.4544 29.381H83.3736V0.000108971H79.1343C78.8582 -0.00900673 78.5832 0.0393702 78.3267 0.142171C78.0703 0.244971 77.838 0.399951 77.6446 0.597277C77.4512 0.794604 77.301 1.02997 77.2034 1.28844C77.1058 1.54691 77.063 1.82285 77.0777 2.09874ZM23.3683 15.7399C23.6777 14.6567 24.3316 13.7038 25.2309 13.0254C26.1302 12.347 27.2261 11.98 28.3526 11.98C29.4791 11.98 30.5749 12.347 31.4742 13.0254C32.3736 13.7038 33.0274 14.6567 33.3368 15.7399H23.3683ZM71.6369 23.7357C68.3578 23.7357 66.1438 21.2803 66.1438 18.0799C66.1438 16.6063 66.7291 15.1931 67.7711 14.1511C68.8131 13.1091 70.2263 12.5237 71.6999 12.5237C73.1735 12.5237 74.5867 13.1091 75.6287 14.1511C76.6707 15.1931 77.256 16.6063 77.256 18.0799C77.2835 18.8251 77.158 19.568 76.8872 20.2629C76.6163 20.9577 76.2059 21.5896 75.6813 22.1196C75.1567 22.6496 74.529 23.0665 73.837 23.3444C73.145 23.6224 72.4034 23.7556 71.6579 23.7357H71.6369Z" fill="#33424F"/>
</svg>
